<?xml version="1.0" encoding="utf-8"?>
<!-- Generator: Adobe Illustrator 16.0.0, SVG Export Plug-In . SVG Version: 6.00 Build 0)  -->
<!DOCTYPE svg PUBLIC "-//W3C//DTD SVG 1.1//EN" "http://www.w3.org/Graphics/SVG/1.1/DTD/svg11.dtd">
<svg version="1.1" id="Layer_1" xmlns="http://www.w3.org/2000/svg" xmlns:xlink="http://www.w3.org/1999/xlink" x="0px" y="0px"
	 width="187.187px" height="50.5px" viewBox="0 0 187.187 50.5" enable-background="new 0 0 187.187 50.5" xml:space="preserve">
<g>
	<g>
		<path fill="#FFFFFF" d="M0,2.223h6.917c2.783,0,4.921,0.33,6.417,0.989c1.494,0.66,2.675,1.674,3.542,3.042
			c0.867,1.367,1.3,2.886,1.3,4.556c0,1.559-0.38,2.978-1.139,4.258c-0.76,1.28-1.875,2.317-3.347,3.112
			c1.823,0.62,3.226,1.348,4.209,2.183s1.748,1.845,2.295,3.029c0.547,1.185,0.82,2.469,0.82,3.853c0,2.814-1.03,5.195-3.089,7.144
			c-2.06,1.948-4.822,2.922-8.289,2.922H0V2.223z M3.435,5.657v11.234h2.008c2.438,0,4.231-0.227,5.378-0.68
			c1.147-0.453,2.056-1.169,2.725-2.146c0.669-0.979,1.004-2.063,1.004-3.256c0-1.606-0.562-2.866-1.686-3.781
			c-1.123-0.914-2.912-1.371-5.366-1.371H3.435z M3.435,20.422v13.453h4.349c2.564,0,4.444-0.251,5.639-0.752
			s2.154-1.283,2.879-2.349c0.725-1.065,1.087-2.219,1.087-3.459c0-1.559-0.509-2.918-1.528-4.079
			c-1.019-1.16-2.419-1.956-4.203-2.385c-1.195-0.286-3.275-0.43-6.239-0.43H3.435z"/>
		<path fill="#FFFFFF" d="M24.463,1.34h3.339v35.97h-3.339V1.34z"/>
		<path fill="#FFFFFF" d="M31.872,11.358h3.339v12.117c0,2.957,0.16,4.993,0.479,6.105c0.478,1.591,1.389,2.847,2.735,3.769
			c1.345,0.923,2.95,1.384,4.813,1.384s3.443-0.449,4.742-1.348c1.297-0.898,2.193-2.079,2.688-3.542
			c0.334-1.002,0.501-3.125,0.501-6.368V11.358h3.411v12.737c0,3.577-0.418,6.272-1.252,8.086c-0.836,1.812-2.092,3.231-3.77,4.257
			c-1.678,1.026-3.78,1.539-6.309,1.539s-4.64-0.513-6.333-1.539c-1.693-1.025-2.958-2.456-3.792-4.293s-1.252-4.6-1.252-8.289
			V11.358z"/>
		<path fill="#FFFFFF" d="M81.404,28.699l2.814,1.479c-0.923,1.812-1.989,3.276-3.199,4.389c-1.209,1.113-2.57,1.96-4.082,2.54
			c-1.513,0.581-3.224,0.871-5.133,0.871c-4.234,0-7.545-1.388-9.932-4.162c-2.389-2.775-3.582-5.911-3.582-9.41
			c0-3.292,1.011-6.226,3.032-8.802c2.562-3.275,5.992-4.913,10.29-4.913c4.424,0,7.957,1.678,10.6,5.032
			c1.878,2.37,2.832,5.328,2.865,8.873H61.726c0.062,3.015,1.026,5.485,2.889,7.413c1.863,1.928,4.164,2.892,6.902,2.892
			c1.321,0,2.606-0.229,3.856-0.689c1.25-0.459,2.312-1.069,3.188-1.829C79.437,31.621,80.384,30.394,81.404,28.699z M81.404,21.71
			c-0.445-1.78-1.095-3.204-1.946-4.27c-0.853-1.065-1.979-1.924-3.38-2.576c-1.4-0.651-2.873-0.978-4.418-0.978
			c-2.547,0-4.736,0.818-6.567,2.456c-1.337,1.193-2.349,2.982-3.032,5.367H81.404z"/>
		<path fill="#FFFFFF" d="M89.075,37.31V1.34h3.339v14.479c1.398-1.718,2.962-3.001,4.695-3.853c1.73-0.85,3.629-1.275,5.695-1.275
			c3.67,0,6.803,1.332,9.4,3.995c2.596,2.663,3.895,5.896,3.895,9.696c0,3.753-1.311,6.957-3.932,9.612s-5.773,3.983-9.459,3.983
			c-2.113,0-4.027-0.453-5.742-1.359c-1.717-0.906-3.232-2.267-4.552-4.079v4.771H89.075z M102.433,34.758
			c1.855,0,3.568-0.457,5.139-1.372c1.572-0.914,2.82-2.198,3.748-3.853c0.93-1.653,1.393-3.402,1.393-5.247
			s-0.467-3.602-1.404-5.271c-0.936-1.67-2.193-2.97-3.771-3.899c-1.578-0.931-3.264-1.396-5.057-1.396
			c-1.824,0-3.557,0.465-5.199,1.396c-1.643,0.93-2.904,2.182-3.783,3.756c-0.881,1.575-1.322,3.348-1.322,5.319
			c0,3.006,0.988,5.519,2.962,7.538C97.112,33.748,99.544,34.758,102.433,34.758z"/>
		<path fill="#FFFFFF" d="M164.312,11.358h4.008l6.902,9.493l6.83-9.493h4.014l-8.834,12.259l9.955,13.692h-4.068L175.22,26.41
			l-7.854,10.899h-3.984l9.832-13.668L164.312,11.358z"/>
	</g>
	<polygon fill="#C5E5ED" points="117.829,22.613 144.739,11.804 159.966,38.837 134.204,43.868 	"/>
	<polygon fill="#A3D7E2" points="150.866,0 145.042,11.521 159.958,38.815 160.704,20.729 	"/>
	<g>
		<defs>
			<polygon id="SVGID_1_" points="150.874,0.041 144.716,11.409 117.856,22.64 131.255,9.269 			"/>
		</defs>
		<use xlink:href="#SVGID_1_"  overflow="visible" fill="#FFFFFF"/>
		<clipPath id="SVGID_2_">
			<use xlink:href="#SVGID_1_"  overflow="visible"/>
		</clipPath>
	</g>
	<g>
		<path fill="#FFFFFF" d="M164.766,44.213h-0.809c0.147-0.653,0.43-1.156,0.846-1.508c0.417-0.353,0.909-0.528,1.477-0.528
			c0.413,0,0.799,0.094,1.156,0.282c0.356,0.189,0.634,0.443,0.829,0.763s0.294,0.654,0.294,1.002c0,0.683-0.34,1.223-1.019,1.622
			c0.381,0.154,0.693,0.381,0.938,0.679c0.345,0.42,0.518,0.891,0.518,1.411c0,0.449-0.119,0.878-0.356,1.285
			c-0.236,0.407-0.56,0.723-0.97,0.945c-0.409,0.223-0.867,0.334-1.374,0.334c-0.682,0-1.251-0.196-1.707-0.59
			s-0.755-0.971-0.895-1.732h0.775c0.137,0.514,0.332,0.886,0.588,1.115c0.326,0.291,0.743,0.437,1.25,0.437
			c0.574,0,1.036-0.172,1.385-0.517c0.348-0.345,0.522-0.749,0.522-1.213c0-0.309-0.088-0.598-0.262-0.867s-0.407-0.472-0.7-0.608
			s-0.746-0.221-1.36-0.253v-0.728c0.362,0,0.693-0.063,0.991-0.191s0.515-0.29,0.649-0.487c0.135-0.198,0.202-0.413,0.202-0.646
			c0-0.345-0.138-0.644-0.412-0.895c-0.275-0.251-0.623-0.377-1.043-0.377c-0.342,0-0.636,0.096-0.884,0.288
			S164.938,43.753,164.766,44.213z"/>
		<path fill="#FFFFFF" d="M171.09,49.115c0.184,0,0.34,0.065,0.469,0.194c0.13,0.129,0.194,0.287,0.194,0.474
			c0,0.184-0.064,0.341-0.194,0.472c-0.129,0.131-0.285,0.196-0.469,0.196c-0.183,0-0.339-0.065-0.469-0.196
			c-0.129-0.131-0.193-0.288-0.193-0.472c0-0.187,0.064-0.345,0.193-0.474C170.751,49.181,170.907,49.115,171.09,49.115z"/>
		<path fill="#FFFFFF" d="M172.825,46.341c0-1.045,0.111-1.853,0.336-2.424s0.542-1.004,0.951-1.299
			c0.409-0.294,0.867-0.441,1.374-0.441c0.514,0,0.979,0.148,1.396,0.444c0.416,0.296,0.746,0.741,0.988,1.333
			c0.242,0.593,0.363,1.389,0.363,2.387c0,0.995-0.119,1.787-0.358,2.376c-0.238,0.589-0.568,1.033-0.988,1.333
			c-0.42,0.301-0.887,0.45-1.4,0.45c-0.507,0-0.963-0.146-1.368-0.437c-0.406-0.291-0.724-0.725-0.951-1.301
			C172.938,48.187,172.825,47.379,172.825,46.341z M173.573,46.354c0,0.896,0.08,1.571,0.24,2.03
			c0.159,0.458,0.396,0.806,0.708,1.043s0.644,0.355,0.991,0.355c0.353,0,0.681-0.115,0.986-0.348
			c0.305-0.231,0.537-0.579,0.695-1.043c0.197-0.564,0.296-1.244,0.296-2.038c0-0.798-0.088-1.451-0.264-1.96
			c-0.177-0.509-0.42-0.881-0.73-1.116s-0.639-0.353-0.983-0.353c-0.352,0-0.682,0.117-0.991,0.353
			c-0.309,0.235-0.544,0.583-0.705,1.041C173.654,44.777,173.573,45.456,173.573,46.354z"/>
	</g>
</g>
</svg>
