<?xml version="1.0" encoding="utf-8"?>
<!-- Generator: Adobe Illustrator 16.0.0, SVG Export Plug-In . SVG Version: 6.00 Build 0)  -->
<!DOCTYPE svg PUBLIC "-//W3C//DTD SVG 1.1//EN" "http://www.w3.org/Graphics/SVG/1.1/DTD/svg11.dtd">
<svg version="1.1" id="Layer_1" xmlns="http://www.w3.org/2000/svg" xmlns:xlink="http://www.w3.org/1999/xlink" x="0px" y="0px"
	 width="187.188px" height="50.5px" viewBox="0 0 187.188 50.5" enable-background="new 0 0 187.188 50.5" xml:space="preserve">
<g>
	<path fill="#0A4E99" d="M0,2.223h6.917c2.783,0,4.921,0.33,6.417,0.989c1.494,0.66,2.675,1.674,3.542,3.042
		c0.867,1.367,1.3,2.886,1.3,4.556c0,1.559-0.38,2.978-1.139,4.258c-0.76,1.28-1.875,2.317-3.347,3.112
		c1.823,0.62,3.226,1.348,4.209,2.183c0.982,0.835,1.748,1.845,2.295,3.029c0.547,1.185,0.82,2.469,0.82,3.853
		c0,2.813-1.03,5.194-3.09,7.144c-2.06,1.948-4.821,2.922-8.289,2.922H0V2.223z M3.435,5.657v11.234h2.008
		c2.438,0,4.23-0.227,5.378-0.68c1.146-0.453,2.056-1.169,2.725-2.146c0.669-0.979,1.004-2.063,1.004-3.256
		c0-1.606-0.562-2.866-1.686-3.781c-1.123-0.914-2.912-1.371-5.366-1.371H3.435z M3.435,20.422v13.453h4.349
		c2.564,0,4.444-0.251,5.639-0.752c1.195-0.501,2.154-1.283,2.879-2.35c0.726-1.064,1.088-2.219,1.088-3.459
		c0-1.559-0.51-2.917-1.528-4.079c-1.02-1.16-2.419-1.956-4.203-2.385c-1.195-0.286-3.275-0.43-6.239-0.43L3.435,20.422
		L3.435,20.422z"/>
	<path fill="#0A4E99" d="M24.463,1.34h3.339v35.971h-3.339V1.34z"/>
	<path fill="#0A4E99" d="M31.872,11.358h3.339v12.117c0,2.957,0.16,4.993,0.479,6.105c0.478,1.591,1.389,2.847,2.734,3.77
		c1.346,0.922,2.95,1.383,4.813,1.383s3.443-0.448,4.742-1.348c1.297-0.898,2.192-2.078,2.688-3.542
		c0.334-1.002,0.501-3.125,0.501-6.368V11.358h3.411v12.737c0,3.577-0.418,6.272-1.252,8.086c-0.836,1.812-2.092,3.23-3.77,4.256
		c-1.679,1.026-3.78,1.539-6.31,1.539c-2.528,0-4.64-0.513-6.333-1.539c-1.692-1.024-2.958-2.455-3.792-4.293
		c-0.834-1.836-1.252-4.6-1.252-8.289V11.358z"/>
	<path fill="#0A4E99" d="M81.404,28.699l2.813,1.479c-0.923,1.812-1.988,3.276-3.198,4.389c-1.209,1.113-2.57,1.961-4.082,2.541
		c-1.514,0.58-3.225,0.871-5.133,0.871c-4.234,0-7.546-1.389-9.933-4.162c-2.389-2.775-3.582-5.912-3.582-9.41
		c0-3.292,1.011-6.226,3.032-8.802c2.562-3.275,5.992-4.913,10.29-4.913c4.424,0,7.957,1.678,10.6,5.032
		c1.878,2.37,2.832,5.328,2.865,8.873H61.726c0.062,3.015,1.025,5.485,2.889,7.413c1.863,1.929,4.164,2.892,6.902,2.892
		c1.32,0,2.605-0.229,3.855-0.688c1.25-0.459,2.312-1.069,3.188-1.829C79.437,31.621,80.384,30.395,81.404,28.699z M81.404,21.71
		c-0.445-1.78-1.095-3.204-1.946-4.27c-0.853-1.065-1.979-1.924-3.38-2.576c-1.399-0.651-2.873-0.979-4.418-0.979
		c-2.547,0-4.736,0.818-6.567,2.456c-1.337,1.193-2.349,2.982-3.031,5.367L81.404,21.71L81.404,21.71z"/>
	<path fill="#0A4E99" d="M89.075,37.311V1.34h3.339v14.479c1.398-1.718,2.962-3.001,4.695-3.853c1.729-0.85,3.629-1.275,5.695-1.275
		c3.67,0,6.803,1.332,9.399,3.995c2.596,2.663,3.896,5.896,3.896,9.696c0,3.753-1.312,6.957-3.933,9.612
		c-2.621,2.654-5.772,3.982-9.459,3.982c-2.112,0-4.026-0.453-5.742-1.358c-1.717-0.906-3.231-2.267-4.552-4.079v4.771H89.075z
		 M102.433,34.758c1.854,0,3.567-0.457,5.139-1.372c1.572-0.913,2.82-2.198,3.748-3.853c0.93-1.653,1.393-3.402,1.393-5.247
		c0-1.845-0.467-3.602-1.403-5.271c-0.937-1.67-2.193-2.97-3.771-3.899c-1.578-0.931-3.264-1.396-5.057-1.396
		c-1.824,0-3.558,0.465-5.199,1.396c-1.643,0.93-2.904,2.182-3.783,3.756c-0.881,1.575-1.322,3.348-1.322,5.319
		c0,3.006,0.988,5.519,2.963,7.538C97.112,33.748,99.544,34.758,102.433,34.758z"/>
	<path fill="#0A4E99" d="M164.312,11.358h4.008l6.902,9.493l6.829-9.493h4.015l-8.834,12.259l9.955,13.691h-4.068L175.22,26.41
		l-7.854,10.898h-3.984l9.832-13.667L164.312,11.358z"/>
</g>
<polygon fill="#4071B1" points="117.829,22.613 144.739,11.804 159.966,38.837 134.204,43.868 "/>
<polygon fill="#0A4E99" points="150.866,0 145.042,11.521 159.958,38.814 160.704,20.729 "/>
<g>
	<g>
		<polygon id="SVGID_1_" fill="#4AAADB" points="150.874,0.041 144.716,11.409 117.856,22.64 131.255,9.269 		"/>
	</g>
</g>
<g>
	<path fill="#0A4E99" d="M164.765,44.213h-0.808c0.146-0.652,0.428-1.156,0.847-1.508c0.416-0.354,0.907-0.528,1.475-0.528
		c0.414,0,0.799,0.095,1.156,0.282c0.356,0.189,0.635,0.443,0.83,0.764c0.194,0.319,0.293,0.653,0.293,1.002
		c0,0.683-0.341,1.223-1.019,1.621c0.381,0.154,0.693,0.381,0.938,0.68c0.344,0.42,0.518,0.891,0.518,1.41
		c0,0.449-0.119,0.879-0.356,1.285c-0.236,0.407-0.56,0.723-0.97,0.945c-0.409,0.223-0.866,0.334-1.375,0.334
		c-0.682,0-1.25-0.195-1.707-0.59c-0.455-0.395-0.754-0.971-0.895-1.732h0.777c0.137,0.514,0.331,0.887,0.586,1.115
		c0.327,0.291,0.743,0.438,1.25,0.438c0.573,0,1.036-0.172,1.385-0.518c0.348-0.345,0.522-0.749,0.522-1.213
		c0-0.309-0.088-0.598-0.262-0.867c-0.174-0.269-0.408-0.472-0.701-0.607c-0.293-0.137-0.746-0.221-1.358-0.254v-0.728
		c0.36,0,0.692-0.063,0.989-0.19c0.3-0.129,0.517-0.291,0.65-0.487c0.135-0.198,0.201-0.413,0.201-0.646
		c0-0.346-0.137-0.645-0.412-0.896s-0.623-0.377-1.043-0.377c-0.342,0-0.635,0.096-0.883,0.288
		C165.147,43.428,164.938,43.753,164.765,44.213z"/>
	<path fill="#0A4E99" d="M171.089,49.115c0.185,0,0.341,0.064,0.47,0.193c0.131,0.129,0.194,0.287,0.194,0.475
		c0,0.184-0.063,0.341-0.194,0.472c-0.129,0.131-0.285,0.196-0.47,0.196c-0.182,0-0.338-0.065-0.469-0.196
		c-0.129-0.131-0.192-0.288-0.192-0.472c0-0.188,0.063-0.346,0.192-0.475C170.751,49.182,170.907,49.115,171.089,49.115z"/>
	<path fill="#0A4E99" d="M172.825,46.341c0-1.045,0.111-1.853,0.336-2.424c0.226-0.571,0.541-1.004,0.951-1.299
		c0.408-0.294,0.867-0.441,1.373-0.441c0.514,0,0.979,0.148,1.396,0.444c0.416,0.296,0.746,0.74,0.988,1.333
		s0.363,1.389,0.363,2.387c0,0.995-0.119,1.787-0.359,2.376c-0.238,0.59-0.567,1.033-0.988,1.333c-0.42,0.302-0.887,0.45-1.399,0.45
		c-0.506,0-0.963-0.146-1.367-0.438c-0.406-0.291-0.725-0.725-0.951-1.301C172.938,48.188,172.825,47.379,172.825,46.341z
		 M173.573,46.354c0,0.896,0.08,1.571,0.24,2.03c0.158,0.458,0.395,0.806,0.707,1.043c0.312,0.237,0.645,0.355,0.992,0.355
		c0.352,0,0.68-0.115,0.985-0.349c0.306-0.23,0.537-0.578,0.695-1.043c0.197-0.563,0.295-1.244,0.295-2.037
		c0-0.799-0.088-1.451-0.264-1.961c-0.177-0.509-0.42-0.881-0.73-1.115c-0.31-0.235-0.639-0.354-0.981-0.354
		c-0.353,0-0.683,0.117-0.992,0.354c-0.31,0.234-0.543,0.582-0.705,1.041C173.653,44.775,173.573,45.456,173.573,46.354z"/>
</g>
</svg>
